<?xml version="1.0" encoding="UTF-8" standalone="no"?>
<!-- Created with Inkscape (http://www.inkscape.org/) -->

<svg
   width="68mm"
   height="60mm"
   viewBox="0 0 68 60"
   version="1.1"
   id="svg996"
   xml:space="preserve"
   xmlns:inkscape="http://www.inkscape.org/namespaces/inkscape"
   xmlns:sodipodi="http://sodipodi.sourceforge.net/DTD/sodipodi-0.dtd"
   xmlns="http://www.w3.org/2000/svg"
   xmlns:svg="http://www.w3.org/2000/svg"><sodipodi:namedview
     id="namedview998"
     pagecolor="#ffffff"
     bordercolor="#000000"
     borderopacity="0.25"
     inkscape:showpageshadow="2"
     inkscape:pageopacity="0.0"
     inkscape:pagecheckerboard="0"
     inkscape:deskcolor="#d1d1d1"
     inkscape:document-units="mm"
     showgrid="false" /><defs
     id="defs993" /><g
     inkscape:label="Layer 1"
     inkscape:groupmode="layer"
     id="layer1"
     transform="translate(-64.000001,-62.999998)"><path
       d="m 115.79059,90.535746 c -0.90832,-0.6088 -3.2946,-0.86862 -5.0292,-0.40322 -0.0931,-1.72006 -0.98505,-3.16971 -2.61488,-4.43468 l -0.60325,-0.40296 -0.40217,0.60483 c -0.79031,1.19407 -1.12368,2.7858 -1.00568,4.23281 0.0931,0.89164 0.40428,1.89336 1.00568,2.62043 -2.25769,1.30387 -4.33943,1.0078 -13.557246,1.0078 h -14.23167 c -0.0413,2.07222 0.29316,6.05737 2.83898,9.301694 0.28152,0.35851 0.58949,0.70511 0.92445,1.03902 2.0701,2.06348 5.19774,3.57664 9.87452,3.58061 7.135016,0.007 13.247676,-3.83276 16.966396,-13.114614 1.22344,0.0196 4.45373,0.21828 6.03462,-2.82231 0.0386,-0.0511 0.40217,-0.80592 0.40217,-0.80592 l -0.60272,-0.40296 z m -27.150486,-1.89468 h -4.00208 v 3.98357 h 4.00208 z m 5.16943,0 h -4.00182 v 3.98357 h 4.00182 z m 5.17022,0 h -4.00182 v 3.98357 h 4.00182 z m 5.170486,0 h -4.00209 v 3.98357 h 4.00209 z m -20.680616,0 h -4.00183 v 3.98357 h 4.00183 z m 5.17048,-5.03132 h -4.00208 v 3.98357 h 4.00208 z m 5.16943,0 h -4.00182 v 3.98357 h 4.00182 z m 5.17022,0 h -4.00182 v 3.98357 h 4.00182 z m 0,-5.03184 h -4.00182 v 3.98357 h 4.00182 z"
       fill="#1d63ed"
       id="path2573"
       style="stroke-width:0.264583" /></g></svg>
