<?xml version="1.0" encoding="UTF-8" standalone="no"?>
<!-- Created with Inkscape (http://www.inkscape.org/) -->

<svg
   width="169.14258mm"
   height="135.31886mm"
   viewBox="0 0 169.14258 135.31886"
   version="1.1"
   id="svg5"
   xml:space="preserve"
   xmlns:inkscape="http://www.inkscape.org/namespaces/inkscape"
   xmlns:sodipodi="http://sodipodi.sourceforge.net/DTD/sodipodi-0.dtd"
   xmlns:xlink="http://www.w3.org/1999/xlink"
   xmlns="http://www.w3.org/2000/svg"
   xmlns:svg="http://www.w3.org/2000/svg"><sodipodi:namedview
     id="namedview7"
     pagecolor="#ffffff"
     bordercolor="#000000"
     borderopacity="0.25"
     inkscape:showpageshadow="2"
     inkscape:pageopacity="0.0"
     inkscape:pagecheckerboard="0"
     inkscape:deskcolor="#d1d1d1"
     inkscape:document-units="mm"
     showgrid="false" /><defs
     id="defs2"><linearGradient
       inkscape:collect="always"
       id="linearGradient3909"><stop
         style="stop-color:#575dff;stop-opacity:0.98039216;"
         offset="0"
         id="stop3905" /><stop
         style="stop-color:#62cbff;stop-opacity:1;"
         offset="1"
         id="stop3907" /></linearGradient><linearGradient
       inkscape:collect="always"
       xlink:href="#linearGradient3909"
       id="linearGradient3911"
       x1="147.03145"
       y1="72.318398"
       x2="147.2709"
       y2="207.61606"
       gradientUnits="userSpaceOnUse"
       gradientTransform="translate(-36.638129,6.2260873)" /></defs><g
     inkscape:label="Layer 1"
     inkscape:groupmode="layer"
     id="layer1"
     transform="translate(-25.730128,-78.459448)"><path
       style="fill:#fcfdfe;fill-opacity:0;stroke-width:0.264583"
       d="m 33.331093,186.9277 0.0086,-3.63802 0.483906,1.40098 c 0.843445,2.4419 2.931982,4.53043 5.373881,5.37388 l 1.40098,0.48391 -3.638021,0.009 -3.638021,0.009 z m 163.449627,3.13684 c 2.4419,-0.84345 4.53044,-2.93198 5.37388,-5.37388 l 0.48391,-1.40098 0.009,3.63802 0.009,3.63802 -3.63802,-0.009 -3.63802,-0.009 1.40098,-0.48391 z m -163.440566,-72.0608 -0.0177,-62.904676 41.605728,0.0086 41.605728,0.0086 -1.36725,0.472486 c -1.56881,0.542144 -2.96398,1.531276 -3.89159,2.759023 -0.35416,0.468742 -7.5206,11.567882 -15.925428,24.664756 -50.013188,77.933351 -60.67074,94.560391 -60.980957,95.137541 -0.189675,0.35289 -0.494707,1.11787 -0.677848,1.69995 l -0.332984,1.05834 z m 169.045236,62.30938 c -0.003,-0.25467 -0.22349,-0.93927 -0.48954,-1.52136 -0.26605,-0.58208 -10.72149,-17.01271 -23.2343,-36.5125 C 166.14874,122.77947 149.03411,96.109482 140.62904,83.012604 132.22396,69.91573 125.05733,58.81659 124.70317,58.347848 c -0.92761,-1.227747 -2.32278,-2.216879 -3.89159,-2.759023 l -1.36725,-0.472486 41.60573,-0.0086 41.60572,-0.0086 v 62.838541 c 0,34.56119 -0.0595,62.83853 -0.13229,62.83853 -0.0728,0 -0.1349,-0.20836 -0.1381,-0.46302 z M 96.092167,126.20322 c -2.654279,-2.6572 -4.825963,-4.94989 -4.825963,-5.09489 0,-0.50255 26.397226,-41.270726 26.722626,-41.270726 0.41795,0 22.28709,33.949486 22.08244,34.280616 -0.091,0.14721 -4.61903,0.2475 -11.17414,0.2475 h -11.02117 l -8.34937,8.33438 c -4.59215,4.5839 -8.40766,8.33437 -8.47891,8.33437 -0.0713,0 -2.301232,-2.17406 -4.955513,-4.83125 z"
       id="path2642" /><path
       style="fill:url(#linearGradient3911);fill-opacity:1;stroke-width:0.264583"
       d="m 31.53464,213.29356 c -4.639155,-1.60545 -7.061679,-6.87409 -5.144105,-11.18769 0.4507,-1.01385 10.211591,-16.27677 63.676276,-99.56934 7.37926,-11.496142 13.794079,-21.294111 14.255139,-21.77326 0.46107,-0.47915 1.49464,-1.193525 2.29682,-1.5875 l 1.45851,-0.716319 h 2.24896 2.24896 l 1.45851,0.716319 c 0.80218,0.393975 1.83586,1.10835 2.29706,1.5875 0.4612,0.479149 7.41111,11.110555 15.44426,23.62535 52.18323,81.29601 62.03454,96.69932 62.52543,97.76353 0.76982,1.66889 0.76175,4.69505 -0.0171,6.39648 -0.79979,1.74729 -2.53487,3.5228 -4.28014,4.37988 l -1.49265,0.73302 -77.7875,0.0584 -77.78749,0.0584 z m 70.32907,-67.36536 8.34937,-8.33438 h 11.02117 c 6.55511,0 11.08316,-0.10029 11.17414,-0.2475 0.20465,-0.33113 -21.66449,-34.28062 -22.08244,-34.28062 -0.3254,0 -26.722619,40.76818 -26.722619,41.27073 0,0.25836 9.52688,9.92614 9.78147,9.92614 0.0713,0 3.88676,-3.75047 8.478909,-8.33437 z"
       id="path2640" /></g></svg>
